<svg width="1200" height="520" viewBox="0 0 1200 520" fill="none" xmlns="http://www.w3.org/2000/svg" role="img" aria-labelledby="title desc">
  <title id="title">WeSight desktop AI agent workspace</title>
  <desc id="desc">A polished product banner showing WeSight as a desktop workspace for Claude Code, Codex, OpenClaw, Hermes Agent, and custom LLMs.</desc>
  <defs>
    <linearGradient id="bg" x1="0" y1="0" x2="1200" y2="520" gradientUnits="userSpaceOnUse">
      <stop stop-color="#07111f"/>
      <stop offset="0.54" stop-color="#0f2137"/>
      <stop offset="1" stop-color="#101827"/>
    </linearGradient>
    <linearGradient id="panel" x1="190" y1="84" x2="1010" y2="436" gradientUnits="userSpaceOnUse">
      <stop stop-color="#fbfdff" stop-opacity="0.18"/>
      <stop offset="1" stop-color="#fbfdff" stop-opacity="0.07"/>
    </linearGradient>
    <linearGradient id="accent" x1="238" y1="146" x2="964" y2="382" gradientUnits="userSpaceOnUse">
      <stop stop-color="#57d6ff"/>
      <stop offset="0.5" stop-color="#8ef2c6"/>
      <stop offset="1" stop-color="#ffd166"/>
    </linearGradient>
    <pattern id="grid" width="36" height="36" patternUnits="userSpaceOnUse">
      <path d="M 36 0 L 0 0 0 36" stroke="#ffffff" stroke-opacity="0.07" stroke-width="1"/>
    </pattern>
    <filter id="shadow" x="150" y="54" width="900" height="430" filterUnits="userSpaceOnUse" color-interpolation-filters="sRGB">
      <feDropShadow dx="0" dy="26" stdDeviation="34" flood-color="#000814" flood-opacity="0.42"/>
    </filter>
  </defs>

  <rect width="1200" height="520" rx="38" fill="url(#bg)"/>
  <rect width="1200" height="520" rx="38" fill="url(#grid)"/>
  <path d="M116 378C229 274 330 318 451 223C555 142 663 108 790 164C922 222 995 145 1087 94" stroke="url(#accent)" stroke-opacity="0.28" stroke-width="2"/>
  <path d="M150 410C291 348 354 399 484 318C605 243 716 247 829 310C949 377 1017 312 1106 247" stroke="url(#accent)" stroke-opacity="0.18" stroke-width="2"/>

  <g filter="url(#shadow)">
    <rect x="176" y="76" width="848" height="368" rx="26" fill="url(#panel)" stroke="#ffffff" stroke-opacity="0.18"/>
    <rect x="198" y="100" width="804" height="48" rx="16" fill="#ffffff" fill-opacity="0.09" stroke="#ffffff" stroke-opacity="0.12"/>
    <circle cx="228" cy="124" r="6" fill="#ff6b6b"/>
    <circle cx="250" cy="124" r="6" fill="#ffd166"/>
    <circle cx="272" cy="124" r="6" fill="#6ee7b7"/>
    <text x="312" y="130" fill="#e7f0ff" font-family="Inter, ui-sans-serif, system-ui, -apple-system, BlinkMacSystemFont, Segoe UI, sans-serif" font-size="14" font-weight="600">wesight.ai / agent workspace</text>

    <rect x="216" y="176" width="246" height="224" rx="18" fill="#07111f" fill-opacity="0.55" stroke="#ffffff" stroke-opacity="0.12"/>
    <text x="242" y="215" fill="#ffffff" font-family="Inter, ui-sans-serif, system-ui, -apple-system, BlinkMacSystemFont, Segoe UI, sans-serif" font-size="58" font-weight="800">WeSight</text>
    <text x="244" y="252" fill="#a9bdd8" font-family="Inter, ui-sans-serif, system-ui, -apple-system, BlinkMacSystemFont, Segoe UI, sans-serif" font-size="19" font-weight="500">Desktop AI Agent Workspace</text>
    <rect x="244" y="288" width="154" height="34" rx="17" fill="#57d6ff" fill-opacity="0.16" stroke="#57d6ff" stroke-opacity="0.55"/>
    <text x="267" y="311" fill="#bdefff" font-family="Inter, ui-sans-serif, system-ui, -apple-system, BlinkMacSystemFont, Segoe UI, sans-serif" font-size="14" font-weight="700">macOS first</text>
    <rect x="244" y="340" width="158" height="8" rx="4" fill="#ffffff" fill-opacity="0.18"/>
    <rect x="244" y="362" width="118" height="8" rx="4" fill="#ffffff" fill-opacity="0.12"/>

    <rect x="500" y="176" width="448" height="224" rx="18" fill="#f8fbff" fill-opacity="0.08" stroke="#ffffff" stroke-opacity="0.13"/>
    <rect x="528" y="205" width="178" height="48" rx="14" fill="#57d6ff" fill-opacity="0.14" stroke="#57d6ff" stroke-opacity="0.38"/>
    <text x="552" y="235" fill="#e8f7ff" font-family="Inter, ui-sans-serif, system-ui, -apple-system, BlinkMacSystemFont, Segoe UI, sans-serif" font-size="17" font-weight="700">Claude Code</text>
    <rect x="742" y="205" width="178" height="48" rx="14" fill="#8ef2c6" fill-opacity="0.13" stroke="#8ef2c6" stroke-opacity="0.38"/>
    <text x="798" y="235" fill="#effff8" font-family="Inter, ui-sans-serif, system-ui, -apple-system, BlinkMacSystemFont, Segoe UI, sans-serif" font-size="17" font-weight="700">Codex</text>
    <rect x="528" y="279" width="178" height="48" rx="14" fill="#ffd166" fill-opacity="0.13" stroke="#ffd166" stroke-opacity="0.38"/>
    <text x="575" y="309" fill="#fff5dd" font-family="Inter, ui-sans-serif, system-ui, -apple-system, BlinkMacSystemFont, Segoe UI, sans-serif" font-size="17" font-weight="700">OpenClaw</text>
    <rect x="742" y="279" width="178" height="48" rx="14" fill="#c7b7ff" fill-opacity="0.13" stroke="#c7b7ff" stroke-opacity="0.38"/>
    <text x="780" y="309" fill="#f2efff" font-family="Inter, ui-sans-serif, system-ui, -apple-system, BlinkMacSystemFont, Segoe UI, sans-serif" font-size="17" font-weight="700">Hermes Agent</text>
    <path d="M617 253V279M831 253V279M706 229H742M706 303H742" stroke="#ffffff" stroke-opacity="0.28" stroke-width="2" stroke-linecap="round"/>
    <rect x="604" y="352" width="244" height="24" rx="12" fill="url(#accent)" fill-opacity="0.95"/>
    <text x="643" y="369" fill="#04111f" font-family="Inter, ui-sans-serif, system-ui, -apple-system, BlinkMacSystemFont, Segoe UI, sans-serif" font-size="13" font-weight="800">Unified model settings</text>
  </g>
</svg>
